REM DIRINDEX 1\2\6,1\2\7,1\2\8,1\2\9,1\3\10,1\3\11,1\4\12,1\4\13,1\4\14,1\5\15,1\5\16,1\5\17
REM DIRNAME folder01,folder02,folder03,folder04,folder05,folder06,folder07,folder08,folder09,folder10,folder11,folder12,folder13,folder14,folder15,folder16,folder17
TITLE ""
FILE "1900_2_sec10_0968_0984.mp3" MP3
  TRACK 01 AUDIO
    TITLE "0:"
    INDEX 01 00:00:00
  TRACK 02 AUDIO
    TITLE "13:cjc020_4061"
    INDEX 01 00:00:17
  TRACK 03 AUDIO
    TITLE "0:"
    INDEX 01 00:01:24
  TRACK 04 AUDIO
    TITLE "14:cjc020_4062"
    INDEX 01 00:01:28
  TRACK 05 AUDIO
    TITLE "0:"
    INDEX 01 00:02:53
  TRACK 06 AUDIO
    TITLE "13:cjc020_4063"
    INDEX 01 00:03:37
  TRACK 07 AUDIO
    TITLE "0:"
    INDEX 01 00:04:46
  TRACK 08 AUDIO
    TITLE "14:cjc020_4064"
    INDEX 01 00:04:52
  TRACK 09 AUDIO
    TITLE "0:"
    INDEX 01 00:05:67
  TRACK 10 AUDIO
    TITLE "13:cjc020_4065"
    INDEX 01 00:06:47
  TRACK 11 AUDIO
    TITLE "0:"
    INDEX 01 00:08:01
  TRACK 12 AUDIO
    TITLE "14:cjc020_4066"
    INDEX 01 00:08:07
  TRACK 13 AUDIO
    TITLE "0:"
    INDEX 01 00:10:37
  TRACK 14 AUDIO
    TITLE "13:cjc020_4067"
    INDEX 01 00:11:19
  TRACK 15 AUDIO
    TITLE "0:"
    INDEX 01 00:12:58
  TRACK 16 AUDIO
    TITLE "14:cjc020_4068"
    INDEX 01 00:12:61
  TRACK 17 AUDIO
    TITLE "0:"
    INDEX 01 00:16:55
  TRACK 18 AUDIO
    TITLE "13:cjc020_4069"
    INDEX 01 00:17:33
  TRACK 19 AUDIO
    TITLE "0:"
    INDEX 01 00:18:58
  TRACK 20 AUDIO
    TITLE "14:cjc020_4070"
    INDEX 01 00:18:68
  TRACK 21 AUDIO
    TITLE "0:"
    INDEX 01 00:20:10
  TRACK 22 AUDIO
    TITLE "13:cjc020_4071"
    INDEX 01 00:20:61
  TRACK 23 AUDIO
    TITLE "0:"
    INDEX 01 00:22:19
  TRACK 24 AUDIO
    TITLE "14:cjc020_4072"
    INDEX 01 00:22:25
  TRACK 25 AUDIO
    TITLE "0:"
    INDEX 01 00:25:03
  TRACK 26 AUDIO
    TITLE "13:cjc020_4073"
    INDEX 01 00:25:56
  TRACK 27 AUDIO
    TITLE "0:"
    INDEX 01 00:26:62
  TRACK 28 AUDIO
    TITLE "14:cjc020_4074"
    INDEX 01 00:26:66
  TRACK 29 AUDIO
    TITLE "0:"
    INDEX 01 00:30:22
  TRACK 30 AUDIO
    TITLE "13:cjc020_4075"
    INDEX 01 00:31:04
  TRACK 31 AUDIO
    TITLE "0:"
    INDEX 01 00:32:29
  TRACK 32 AUDIO
    TITLE "14:cjc020_4076"
    INDEX 01 00:32:31
  TRACK 33 AUDIO
    TITLE "0:"
    INDEX 01 00:34:30
  TRACK 34 AUDIO
    TITLE "13:cjc020_4077"
    INDEX 01 00:35:10
  TRACK 35 AUDIO
    TITLE "0:"
    INDEX 01 00:36:19
  TRACK 36 AUDIO
    TITLE "14:cjc020_4078"
    INDEX 01 00:36:27
  TRACK 37 AUDIO
    TITLE "0:"
    INDEX 01 00:38:43
  TRACK 38 AUDIO
    TITLE "13:cjc020_4079"
    INDEX 01 00:39:25
  TRACK 39 AUDIO
    TITLE "0:"
    INDEX 01 00:40:40
  TRACK 40 AUDIO
    TITLE "14:cjc020_4080"
    INDEX 01 00:40:48
  TRACK 41 AUDIO
    TITLE "0:"
    INDEX 01 00:42:66
  TRACK 42 AUDIO
    TITLE "13:cjc020_4081"
    INDEX 01 00:43:46
  TRACK 43 AUDIO
    TITLE "0:"
    INDEX 01 00:44:67
  TRACK 44 AUDIO
    TITLE "14:cjc020_4082"
    INDEX 01 00:44:69
  TRACK 45 AUDIO
    TITLE "0:"
    INDEX 01 00:47:05
  TRACK 46 AUDIO
    TITLE "12:cjc020_4083"
    INDEX 01 00:48:51
  TRACK 47 AUDIO
    TITLE "0:"
    INDEX 01 00:50:19
  TRACK 48 AUDIO
    TITLE "13:cjc020_4084"
    INDEX 01 00:51:20
  TRACK 49 AUDIO
    TITLE "0:"
    INDEX 01 00:52:43
  TRACK 50 AUDIO
    TITLE "14:cjc020_4085"
    INDEX 01 00:52:45
  TRACK 51 AUDIO
    TITLE "0:"
    INDEX 01 00:55:20
  TRACK 52 AUDIO
    TITLE "13:cjc020_4086"
    INDEX 01 00:55:73
  TRACK 53 AUDIO
    TITLE "0:"
    INDEX 01 00:57:13
  TRACK 54 AUDIO
    TITLE "14:cjc020_4087"
    INDEX 01 00:57:15
  TRACK 55 AUDIO
    TITLE "0:"
    INDEX 01 00:59:49
  TRACK 56 AUDIO
    TITLE "13:cjc020_4088"
    INDEX 01 01:00:29
  TRACK 57 AUDIO
    TITLE "0:"
    INDEX 01 01:01:46
  TRACK 58 AUDIO
    TITLE "14:cjc020_4089"
    INDEX 01 01:01:50
  TRACK 59 AUDIO
    TITLE "0:"
    INDEX 01 01:02:67
  TRACK 60 AUDIO
    TITLE "13:cjc020_4090"
    INDEX 01 01:03:51
  TRACK 61 AUDIO
    TITLE "0:"
    INDEX 01 01:04:47
  TRACK 62 AUDIO
    TITLE "14:cjc020_4091"
    INDEX 01 01:04:48
  TRACK 63 AUDIO
    TITLE "0:"
    INDEX 01 01:05:68
  TRACK 64 AUDIO
    TITLE "13:cjc020_4092"
    INDEX 01 01:06:47
  TRACK 65 AUDIO
    TITLE "0:"
    INDEX 01 01:07:64
  TRACK 66 AUDIO
    TITLE "14:cjc020_4093"
    INDEX 01 01:07:66
  TRACK 67 AUDIO
    TITLE "0:"
    INDEX 01 01:10:33
  TRACK 68 AUDIO
    TITLE "13:cjc020_4094"
    INDEX 01 01:11:11
  TRACK 69 AUDIO
    TITLE "0:"
    INDEX 01 01:12:23
  TRACK 70 AUDIO
    TITLE "14:cjc020_4095"
    INDEX 01 01:12:24
  TRACK 71 AUDIO
    TITLE "0:"
    INDEX 01 01:15:01
